<?xml version="1.0" ?><!DOCTYPE svg  PUBLIC '-//W3C//DTD SVG 1.1//EN'  'http://www.w3.org/Graphics/SVG/1.1/DTD/svg11.dtd'><svg height="222.000" viewBox="-412.000 -92.000 1024.000 222.000" width="1024.000" xmlns="http://www.w3.org/2000/svg"><polygon fill="none" fill-rule="evenodd" points="0.0,0.0 0.0,0.0 0.0,0.0" stroke-linejoin="round"/><polygon fill="none" fill-rule="evenodd" points="0.0,0.0 0.0,0.0 0.0,0.0" stroke-linejoin="round"/><line fill="none" stroke="#000" stroke-linecap="round" x1="-400.0" x2="600.0" y1="0.0" y2="-0.0"/><line fill="none" stroke="none" stroke-linecap="round" stroke-width="10.0" x1="0.0" x2="0.0" y1="0.0" y2="0.0"/><line fill="none" stroke="#000" stroke-linecap="round" x1="-341.0" x2="-341.0" y1="-5.0" y2="5.0"/><line fill="none" stroke="#000" stroke-linecap="round" x1="-300.0" x2="-300.0" y1="-5.0" y2="5.0"/><text fill="#000" font-family="Arial" font-size="12.0pt" stroke-width="0.0" x="-311.0" y="17">0</text><line fill="none" stroke="#000" stroke-linecap="round" x1="-259.0" x2="-259.0" y1="-5.0" y2="5.0"/><line fill="none" stroke="#000" stroke-linecap="round" x1="-218.0" x2="-218.0" y1="-5.0" y2="5.0"/><line fill="none" stroke="#000" stroke-linecap="round" x1="-177.0" x2="-177.0" y1="-5.0" y2="5.0"/><line fill="none" stroke="#000" stroke-linecap="round" x1="-136.0" x2="-136.0" y1="-5.0" y2="5.0"/><line fill="none" stroke="#000" stroke-linecap="round" x1="-95.0" x2="-95.0" y1="-5.0" y2="5.0"/><line fill="none" stroke="#000" stroke-linecap="round" x1="-54.0" x2="-54.0" y1="-5.0" y2="5.0"/><line fill="none" stroke="#000" stroke-linecap="round" x1="-13.0" x2="-13.0" y1="-5.0" y2="5.0"/><line fill="none" stroke="#000" stroke-linecap="round" x1="28.0" x2="28.0" y1="-5.0" y2="5.0"/><line fill="none" stroke="#000" stroke-linecap="round" x1="69.0" x2="69.0" y1="-5.0" y2="5.0"/><line fill="none" stroke="#000" stroke-linecap="round" x1="110.0" x2="110.0" y1="-5.0" y2="5.0"/><line fill="none" stroke="#000" stroke-linecap="round" x1="151.0" x2="151.0" y1="-5.0" y2="5.0"/><line fill="none" stroke="#000" stroke-linecap="round" x1="192.0" x2="192.0" y1="-5.0" y2="5.0"/><line fill="none" stroke="#000" stroke-linecap="round" x1="233.0" x2="233.0" y1="-5.0" y2="5.0"/><line fill="none" stroke="#000" stroke-linecap="round" x1="274.0" x2="274.0" y1="-5.0" y2="5.0"/><line fill="none" stroke="#000" stroke-linecap="round" x1="315.0" x2="315.0" y1="-5.0" y2="5.0"/><text fill="#000" font-family="Arial" font-size="12.0pt" stroke-width="0.0" x="314.0" y="17">73</text><line fill="none" stroke="#000" stroke-linecap="round" stroke-width="5.0" x1="-300.0" x2="-300.0" y1="0.0" y2="-0.0"/><polyline fill="none" points="-300.0,-0.0 -261.2024435195329,-19.76834240499549 -220.55106965997814,-35.372942804457395 -178.49126338018792,-46.642833930936646 -135.4838407193439,-53.454540498875204 -92.00000000000009,-55.733432025673494 -48.51615928065626,-53.454540498875204 -5.508736619812247,-46.642833930936646 36.551069659977976,-35.372942804457395 77.20244351953271,-19.768342404995494 115.9999999999998,-1.4210854715202004e-14" stroke="#00f" stroke-linecap="round" stroke-linejoin="round"/><text fill="#00f" font-family="Arial" font-size="16.0pt" stroke-width="0.0" x="-93.0000000000002" y="-63">50</text><polygon fill="#00f" fill-rule="evenodd" points="115.9999999999998,-0.0 110.70577136593985,-8.830127018922195 109.93782217350874,-3.5 105.70577136593985,-0.16987298107780635" stroke="#00f" stroke-linejoin="round"/><line fill="none" stroke="#000" stroke-linecap="round" stroke-width="5.0" x1="115.9999999999998" x2="115.9999999999998" y1="0.0" y2="-0.0"/><polyline fill="none" points="115.9999999999998,-0.0 140.6425925409495,-11.867247109337093 166.77866908599424,-19.929159036721423 193.8243928736841,-24.00564599160366 221.17560712631536,-24.005645991603657 248.22133091400522,-19.92915903672141 274.35740745904997,-11.867247109337068 298.99999999999966,3.197442310920451e-14" stroke="#00f" stroke-linecap="round" stroke-linejoin="round"/><text fill="#00f" font-family="Arial" font-size="16.0pt" stroke-width="0.0" x="206.99999999999966" y="-45">22</text><polygon fill="#00f" fill-rule="evenodd" points="298.99999999999966,-0.0 293.7057713659397,-8.830127018922195 292.9378221735086,-3.5000000000000018 288.7057713659397,-0.16987298107780902" stroke="#00f" stroke-linejoin="round"/><line fill="none" stroke="#f00" stroke-linecap="round" stroke-width="10.0" x1="298.99999999999966" x2="298.99999999999966" y1="0.0" y2="-0.0"/><line fill="none" stroke="none" stroke-linecap="round" stroke-width="2.0" x1="0.0" x2="0.0" y1="0.0" y2="0.0"/><text fill="#f00" font-family="Arial" font-size="20.0pt" stroke-width="0.0" x="-301.0" y="114">start : 0, end: 73 , range: 20[step: 5]</text></svg>