<?xml version="1.0" ?><!DOCTYPE svg  PUBLIC '-//W3C//DTD SVG 1.1//EN'  'http://www.w3.org/Graphics/SVG/1.1/DTD/svg11.dtd'><svg height="296.000" viewBox="-660.000 -236.000 2319.000 296.000" width="2319.000" xmlns="http://www.w3.org/2000/svg"><line fill="none" stroke="none" stroke-linecap="round" stroke-width="2.0" x1="0.0" x2="0.0" y1="0.0" y2="0.0"/><polygon fill="#ff9282" fill-rule="evenodd" points="-640.0,0.0 -490.0,-0.0 -490.0,-150.0 -640.0,-150.00000000000003 -640.0,-2.842170943040401e-14" stroke-linejoin="round"/><polyline fill="none" points="-640.0,0.0 -490.0,-0.0 -490.0,-150.0 -640.0,-150.00000000000003 -640.0,-2.842170943040401e-14 -625.0,-2.4747769032961947e-14 -625.0,-150.00000000000003" stroke="#f00" stroke-linecap="round" stroke-linejoin="round"/><polyline fill="none" points="-625.0,-2.4747769032961947e-14 -610.0,-2.1073828635519886e-14 -610.0,-150.00000000000003" stroke="#f00" stroke-linecap="round" stroke-linejoin="round"/><polyline fill="none" points="-610.0,-2.1073828635519886e-14 -595.0,-1.7399888238077825e-14 -595.0,-150.00000000000003" stroke="#f00" stroke-linecap="round" stroke-linejoin="round"/><polyline fill="none" points="-595.0,-1.7399888238077825e-14 -580.0,-1.3725947840635764e-14 -580.0,-150.0" stroke="#f00" stroke-linecap="round" stroke-linejoin="round"/><polyline fill="none" points="-580.0,-1.3725947840635764e-14 -565.0,-1.0052007443193704e-14 -565.0,-150.0" stroke="#f00" stroke-linecap="round" stroke-linejoin="round"/><polyline fill="none" points="-565.0,-1.0052007443193704e-14 -550.0,-6.378067045751644e-15 -550.0,-150.0" stroke="#f00" stroke-linecap="round" stroke-linejoin="round"/><polyline fill="none" points="-550.0,-6.378067045751644e-15 -535.0,-2.7041266483095837e-15 -535.0,-150.0" stroke="#f00" stroke-linecap="round" stroke-linejoin="round"/><polyline fill="none" points="-535.0,-2.7041266483095837e-15 -520.0,9.698137491324762e-16 -520.0,-150.0" stroke="#f00" stroke-linecap="round" stroke-linejoin="round"/><polyline fill="none" points="-520.0,9.698137491324762e-16 -505.0,4.643754146574536e-15 -504.99999999999994,-150.0" stroke="#f00" stroke-linecap="round" stroke-linejoin="round"/><polyline fill="none" points="-640.0,0.0 -640.0,-15.0 -490.0,-14.999999999999963" stroke="#f00" stroke-linecap="round" stroke-linejoin="round"/><polyline fill="none" points="-640.0,-15.0 -640.0,-30.0 -490.0,-29.999999999999964" stroke="#f00" stroke-linecap="round" stroke-linejoin="round"/><polyline fill="none" points="-640.0,-30.0 -640.0,-45.0 -490.0,-44.999999999999964" stroke="#f00" stroke-linecap="round" stroke-linejoin="round"/><polyline fill="none" points="-640.0,-45.0 -640.0,-60.0 -490.0,-59.999999999999964" stroke="#f00" stroke-linecap="round" stroke-linejoin="round"/><polyline fill="none" points="-640.0,-60.0 -640.0,-75.0 -490.0,-74.99999999999996" stroke="#f00" stroke-linecap="round" stroke-linejoin="round"/><polyline fill="none" points="-640.0,-75.0 -640.0,-90.0 -490.0,-89.99999999999996" stroke="#f00" stroke-linecap="round" stroke-linejoin="round"/><polyline fill="none" points="-640.0,-90.0 -640.0,-105.0 -490.0,-104.99999999999996" stroke="#f00" stroke-linecap="round" stroke-linejoin="round"/><polyline fill="none" points="-640.0,-105.0 -640.0,-120.0 -490.0,-119.99999999999996" stroke="#f00" stroke-linecap="round" stroke-linejoin="round"/><polyline fill="none" points="-640.0,-120.0 -640.0,-135.0 -490.0,-134.99999999999997" stroke="#f00" stroke-linecap="round" stroke-linejoin="round"/><polygon fill="#ff9282" fill-rule="evenodd" points="-460.0,0.0 -310.0,3.6739403974420595e-14 -309.99999999999994,-149.99999999999997 -459.99999999999994,-150.00000000000003 -460.0,-2.842170943040401e-14" stroke-linejoin="round"/><polyline fill="none" points="-460.0,0.0 -310.0,3.6739403974420595e-14 -309.99999999999994,-149.99999999999997 -459.99999999999994,-150.00000000000003 -460.0,-2.842170943040401e-14 -445.0,-2.1073828635519886e-14 -444.99999999999994,-150.00000000000003" stroke="#f00" stroke-linecap="round" stroke-linejoin="round"/><polyline fill="none" points="-445.0,-2.1073828635519886e-14 -430.0,-1.3725947840635766e-14 -429.99999999999994,-150.0" stroke="#f00" stroke-linecap="round" stroke-linejoin="round"/><polyline fill="none" points="-430.0,-1.3725947840635766e-14 -415.0,-6.378067045751646e-15 -414.99999999999994,-150.0" stroke="#f00" stroke-linecap="round" stroke-linejoin="round"/><polyline fill="none" points="-415.0,-6.378067045751646e-15 -400.0,9.698137491324739e-16 -399.99999999999994,-150.0" stroke="#f00" stroke-linecap="round" stroke-linejoin="round"/><polyline fill="none" points="-400.0,9.698137491324739e-16 -385.0,8.317694544016594e-15 -384.99999999999994,-150.0" stroke="#f00" stroke-linecap="round" stroke-linejoin="round"/><polyline fill="none" points="-385.0,8.317694544016594e-15 -370.0,1.5665575338900715e-14 -369.99999999999994,-149.99999999999997" stroke="#f00" stroke-linecap="round" stroke-linejoin="round"/><polyline fill="none" points="-370.0,1.5665575338900715e-14 -355.0,2.3013456133784837e-14 -354.99999999999994,-149.99999999999997" stroke="#f00" stroke-linecap="round" stroke-linejoin="round"/><polyline fill="none" points="-355.0,2.3013456133784837e-14 -340.0,3.036133692866896e-14 -339.99999999999994,-149.99999999999997" stroke="#f00" stroke-linecap="round" stroke-linejoin="round"/><polyline fill="none" points="-340.0,3.036133692866896e-14 -325.0,3.770921772355308e-14 -324.99999999999994,-149.99999999999997" stroke="#f00" stroke-linecap="round" stroke-linejoin="round"/><polyline fill="none" points="-460.0,0.0 -460.0,-15.0 -310.0,-14.999999999999927" stroke="#f00" stroke-linecap="round" stroke-linejoin="round"/><polyline fill="none" points="-460.0,-15.0 -460.0,-30.0 -310.0,-29.999999999999925" stroke="#f00" stroke-linecap="round" stroke-linejoin="round"/><polyline fill="none" points="-460.0,-30.0 -460.0,-45.0 -310.0,-44.99999999999993" stroke="#f00" stroke-linecap="round" stroke-linejoin="round"/><polyline fill="none" points="-460.0,-45.0 -460.0,-60.0 -310.0,-59.99999999999993" stroke="#f00" stroke-linecap="round" stroke-linejoin="round"/><polyline fill="none" points="-460.0,-60.0 -460.0,-75.0 -310.0,-74.99999999999993" stroke="#f00" stroke-linecap="round" stroke-linejoin="round"/><polyline fill="none" points="-460.0,-75.0 -460.0,-90.0 -310.0,-89.99999999999993" stroke="#f00" stroke-linecap="round" stroke-linejoin="round"/><polyline fill="none" points="-460.0,-90.0 -460.0,-105.0 -310.0,-104.99999999999993" stroke="#f00" stroke-linecap="round" stroke-linejoin="round"/><polyline fill="none" points="-460.0,-105.0 -460.0,-120.0 -310.0,-119.99999999999993" stroke="#f00" stroke-linecap="round" stroke-linejoin="round"/><polyline fill="none" points="-460.0,-120.0 -460.0,-135.0 -310.0,-134.99999999999991" stroke="#f00" stroke-linecap="round" stroke-linejoin="round"/><polygon fill="#ff9282" fill-rule="evenodd" points="-280.0,0.0 -130.0,7.347880794884119e-14 -129.99999999999991,-149.99999999999991 -279.9999999999999,-150.0 -280.0,-0.0" stroke-linejoin="round"/><polyline fill="none" points="-280.0,0.0 -130.0,7.347880794884119e-14 -129.99999999999991,-149.99999999999991 -279.9999999999999,-150.0 -280.0,-0.0 -265.0,1.1021821192326179e-14 -264.9999999999999,-150.0" stroke="#f00" stroke-linecap="round" stroke-linejoin="round"/><polyline fill="none" points="-265.0,1.1021821192326179e-14 -250.0,2.2043642384652358e-14 -249.9999999999999,-149.99999999999997" stroke="#f00" stroke-linecap="round" stroke-linejoin="round"/><polyline fill="none" points="-250.0,2.2043642384652358e-14 -235.0,3.306546357697854e-14 -234.9999999999999,-149.99999999999997" stroke="#f00" stroke-linecap="round" stroke-linejoin="round"/><polyline fill="none" points="-235.0,3.306546357697854e-14 -220.0,4.4087284769304716e-14 -219.9999999999999,-149.99999999999994" stroke="#f00" stroke-linecap="round" stroke-linejoin="round"/><polyline fill="none" points="-220.0,4.4087284769304716e-14 -205.0,5.510910596163089e-14 -204.9999999999999,-149.99999999999994" stroke="#f00" stroke-linecap="round" stroke-linejoin="round"/><polyline fill="none" points="-205.0,5.510910596163089e-14 -190.0,6.613092715395707e-14 -189.9999999999999,-149.99999999999994" stroke="#f00" stroke-linecap="round" stroke-linejoin="round"/><polyline fill="none" points="-190.0,6.613092715395707e-14 -175.0,7.715274834628324e-14 -174.9999999999999,-149.99999999999991" stroke="#f00" stroke-linecap="round" stroke-linejoin="round"/><polyline fill="none" points="-175.0,7.715274834628324e-14 -160.0,8.817456953860942e-14 -159.9999999999999,-149.99999999999991" stroke="#f00" stroke-linecap="round" stroke-linejoin="round"/><polyline fill="none" points="-160.0,8.817456953860942e-14 -145.0,9.91963907309356e-14 -144.9999999999999,-149.99999999999991" stroke="#f00" stroke-linecap="round" stroke-linejoin="round"/><polyline fill="none" points="-280.0,0.0 -280.0,-15.0 -130.0,-14.99999999999989" stroke="#f00" stroke-linecap="round" stroke-linejoin="round"/><polyline fill="none" points="-280.0,-15.0 -280.0,-30.0 -130.0,-29.99999999999989" stroke="#f00" stroke-linecap="round" stroke-linejoin="round"/><polyline fill="none" points="-280.0,-30.0 -280.0,-45.0 -130.0,-44.999999999999886" stroke="#f00" stroke-linecap="round" stroke-linejoin="round"/><polyline fill="none" points="-280.0,-45.0 -280.0,-60.0 -130.0,-59.999999999999886" stroke="#f00" stroke-linecap="round" stroke-linejoin="round"/><polyline fill="none" points="-280.0,-60.0 -280.0,-75.0 -130.0,-74.99999999999989" stroke="#f00" stroke-linecap="round" stroke-linejoin="round"/><polyline fill="none" points="-280.0,-75.0 -280.0,-90.0 -130.0,-89.99999999999989" stroke="#f00" stroke-linecap="round" stroke-linejoin="round"/><polyline fill="none" points="-280.0,-90.0 -280.0,-105.0 -130.0,-104.99999999999989" stroke="#f00" stroke-linecap="round" stroke-linejoin="round"/><polyline fill="none" points="-280.0,-105.0 -280.0,-120.0 -130.0,-119.99999999999989" stroke="#f00" stroke-linecap="round" stroke-linejoin="round"/><polyline fill="none" points="-280.0,-120.0 -280.0,-135.0 -130.0,-134.9999999999999" stroke="#f00" stroke-linecap="round" stroke-linejoin="round"/><polygon fill="#ff9282" fill-rule="evenodd" points="-100.0,0.0 50.0,1.102182119232618e-13 50.00000000000012,-149.9999999999999 -99.99999999999989,-150.00000000000003 -100.00000000000003,-2.842170943040401e-14" stroke-linejoin="round"/><polyline fill="none" points="-100.0,0.0 50.0,1.102182119232618e-13 50.00000000000012,-149.9999999999999 -99.99999999999989,-150.00000000000003 -100.00000000000003,-2.842170943040401e-14 -85.00000000000003,-1.3725947840635768e-14 -84.99999999999987,-150.0" stroke="#f00" stroke-linecap="round" stroke-linejoin="round"/><polyline fill="none" points="-85.00000000000003,-1.3725947840635768e-14 -70.00000000000003,9.698137491324723e-16 -69.99999999999987,-150.0" stroke="#f00" stroke-linecap="round" stroke-linejoin="round"/><polyline fill="none" points="-70.00000000000003,9.698137491324723e-16 -55.00000000000003,1.5665575338900712e-14 -54.99999999999987,-149.99999999999997" stroke="#f00" stroke-linecap="round" stroke-linejoin="round"/><polyline fill="none" points="-55.00000000000003,1.5665575338900712e-14 -40.00000000000003,3.036133692866895e-14 -39.99999999999987,-149.99999999999997" stroke="#f00" stroke-linecap="round" stroke-linejoin="round"/><polyline fill="none" points="-40.00000000000003,3.036133692866895e-14 -25.00000000000003,4.5057098518437195e-14 -24.999999999999872,-149.99999999999994" stroke="#f00" stroke-linecap="round" stroke-linejoin="round"/><polyline fill="none" points="-25.00000000000003,4.5057098518437195e-14 -10.000000000000028,5.975286010820544e-14 -9.999999999999872,-149.99999999999994" stroke="#f00" stroke-linecap="round" stroke-linejoin="round"/><polyline fill="none" points="-10.000000000000028,5.975286010820544e-14 4.999999999999972,7.444862169797368e-14 5.000000000000128,-149.99999999999991" stroke="#f00" stroke-linecap="round" stroke-linejoin="round"/><polyline fill="none" points="4.999999999999972,7.444862169797368e-14 19.99999999999997,8.914438328774192e-14 20.000000000000128,-149.99999999999991" stroke="#f00" stroke-linecap="round" stroke-linejoin="round"/><polyline fill="none" points="19.99999999999997,8.914438328774192e-14 34.99999999999997,1.0384014487751017e-13 35.00000000000013,-149.9999999999999" stroke="#f00" stroke-linecap="round" stroke-linejoin="round"/><polyline fill="none" points="-100.0,0.0 -99.99999999999999,-15.0 50.000000000000014,-14.999999999999853" stroke="#f00" stroke-linecap="round" stroke-linejoin="round"/><polyline fill="none" points="-99.99999999999999,-15.0 -99.99999999999997,-30.0 50.00000000000003,-29.999999999999854" stroke="#f00" stroke-linecap="round" stroke-linejoin="round"/><polyline fill="none" points="-99.99999999999997,-30.0 -99.99999999999996,-45.0 50.00000000000004,-44.99999999999985" stroke="#f00" stroke-linecap="round" stroke-linejoin="round"/><polyline fill="none" points="-99.99999999999996,-45.0 -99.99999999999994,-60.0 50.00000000000006,-59.99999999999985" stroke="#f00" stroke-linecap="round" stroke-linejoin="round"/><polyline fill="none" points="-99.99999999999994,-60.0 -99.99999999999993,-75.0 50.00000000000007,-74.99999999999986" stroke="#f00" stroke-linecap="round" stroke-linejoin="round"/><polyline fill="none" points="-99.99999999999993,-75.0 -99.99999999999991,-90.0 50.000000000000085,-89.99999999999986" stroke="#f00" stroke-linecap="round" stroke-linejoin="round"/><polyline fill="none" points="-99.99999999999991,-90.0 -99.9999999999999,-105.0 50.0000000000001,-104.99999999999986" stroke="#f00" stroke-linecap="round" stroke-linejoin="round"/><polyline fill="none" points="-99.9999999999999,-105.0 -99.99999999999989,-120.0 50.000000000000114,-119.99999999999986" stroke="#f00" stroke-linecap="round" stroke-linejoin="round"/><polyline fill="none" points="-99.99999999999989,-120.0 -99.99999999999987,-135.0 50.00000000000013,-134.99999999999986" stroke="#f00" stroke-linecap="round" stroke-linejoin="round"/><polygon fill="#ff9282" fill-rule="evenodd" points="80.0,0.0 230.0,1.4695761589768238e-13 230.00000000000014,-149.99999999999986 80.00000000000014,-150.00000000000003 79.99999999999997,-2.842170943040401e-14" stroke-linejoin="round"/><polyline fill="none" points="80.0,0.0 230.0,1.4695761589768238e-13 230.00000000000014,-149.99999999999986 80.00000000000014,-150.00000000000003 79.99999999999997,-2.842170943040401e-14 94.99999999999997,-1.0052007443193713e-14 95.00000000000017,-150.0" stroke="#f00" stroke-linecap="round" stroke-linejoin="round"/><polyline fill="none" points="94.99999999999997,-1.0052007443193713e-14 109.99999999999997,8.317694544016581e-15 110.00000000000017,-150.0" stroke="#f00" stroke-linecap="round" stroke-linejoin="round"/><polyline fill="none" points="109.99999999999997,8.317694544016581e-15 124.99999999999997,2.6687396531226875e-14 125.00000000000017,-149.99999999999997" stroke="#f00" stroke-linecap="round" stroke-linejoin="round"/><polyline fill="none" points="124.99999999999997,2.6687396531226875e-14 139.99999999999997,4.505709851843717e-14 140.00000000000017,-149.99999999999994" stroke="#f00" stroke-linecap="round" stroke-linejoin="round"/><polyline fill="none" points="139.99999999999997,4.505709851843717e-14 154.99999999999997,6.342680050564747e-14 155.00000000000017,-149.99999999999994" stroke="#f00" stroke-linecap="round" stroke-linejoin="round"/><polyline fill="none" points="154.99999999999997,6.342680050564747e-14 169.99999999999997,8.179650249285776e-14 170.00000000000017,-149.99999999999991" stroke="#f00" stroke-linecap="round" stroke-linejoin="round"/><polyline fill="none" points="169.99999999999997,8.179650249285776e-14 184.99999999999997,1.0016620448006806e-13 185.00000000000017,-149.9999999999999" stroke="#f00" stroke-linecap="round" stroke-linejoin="round"/><polyline fill="none" points="184.99999999999997,1.0016620448006806e-13 199.99999999999997,1.1853590646727835e-13 200.00000000000017,-149.9999999999999" stroke="#f00" stroke-linecap="round" stroke-linejoin="round"/><polyline fill="none" points="199.99999999999997,1.1853590646727835e-13 214.99999999999997,1.3690560845448864e-13 215.00000000000017,-149.99999999999986" stroke="#f00" stroke-linecap="round" stroke-linejoin="round"/><polyline fill="none" points="80.0,0.0 80.00000000000001,-15.0 230.0,-14.999999999999817" stroke="#f00" stroke-linecap="round" stroke-linejoin="round"/><polyline fill="none" points="80.00000000000001,-15.0 80.00000000000003,-30.0 230.00000000000003,-29.999999999999815" stroke="#f00" stroke-linecap="round" stroke-linejoin="round"/><polyline fill="none" points="80.00000000000003,-30.0 80.00000000000004,-45.0 230.00000000000006,-44.999999999999815" stroke="#f00" stroke-linecap="round" stroke-linejoin="round"/><polyline fill="none" points="80.00000000000004,-45.0 80.00000000000006,-60.0 230.00000000000006,-59.999999999999815" stroke="#f00" stroke-linecap="round" stroke-linejoin="round"/><polyline fill="none" points="80.00000000000006,-60.0 80.00000000000007,-75.0 230.00000000000006,-74.99999999999982" stroke="#f00" stroke-linecap="round" stroke-linejoin="round"/><polyline fill="none" points="80.00000000000007,-75.0 80.00000000000009,-90.0 230.00000000000009,-89.99999999999982" stroke="#f00" stroke-linecap="round" stroke-linejoin="round"/><polyline fill="none" points="80.00000000000009,-90.0 80.0000000000001,-105.0 230.0000000000001,-104.99999999999982" stroke="#f00" stroke-linecap="round" stroke-linejoin="round"/><polyline fill="none" points="80.0000000000001,-105.0 80.00000000000011,-120.0 230.0000000000001,-119.99999999999982" stroke="#f00" stroke-linecap="round" stroke-linejoin="round"/><polyline fill="none" points="80.00000000000011,-120.0 80.00000000000013,-135.0 230.0000000000001,-134.99999999999983" stroke="#f00" stroke-linecap="round" stroke-linejoin="round"/><polygon fill="#ff9282" fill-rule="evenodd" points="260.0,0.0 410.0,1.8369701987210292e-13 410.00000000000017,-149.99999999999983 260.00000000000017,-150.00000000000003 259.99999999999994,-2.842170943040401e-14" stroke-linejoin="round"/><polyline fill="none" points="260.0,0.0 410.0,1.8369701987210292e-13 410.00000000000017,-149.99999999999983 260.00000000000017,-150.00000000000003 259.99999999999994,-2.842170943040401e-14 274.99999999999994,-6.378067045751659e-15 275.00000000000017,-150.0" stroke="#f00" stroke-linecap="round" stroke-linejoin="round"/><polyline fill="none" points="274.99999999999994,-6.378067045751659e-15 289.99999999999994,1.566557533890069e-14 290.00000000000017,-149.99999999999997" stroke="#f00" stroke-linecap="round" stroke-linejoin="round"/><polyline fill="none" points="289.99999999999994,1.566557533890069e-14 304.99999999999994,3.7709217723553036e-14 305.00000000000017,-149.99999999999997" stroke="#f00" stroke-linecap="round" stroke-linejoin="round"/><polyline fill="none" points="304.99999999999994,3.7709217723553036e-14 319.99999999999994,5.975286010820539e-14 320.00000000000017,-149.99999999999994" stroke="#f00" stroke-linecap="round" stroke-linejoin="round"/><polyline fill="none" points="319.99999999999994,5.975286010820539e-14 334.99999999999994,8.179650249285774e-14 335.00000000000017,-149.99999999999991" stroke="#f00" stroke-linecap="round" stroke-linejoin="round"/><polyline fill="none" points="334.99999999999994,8.179650249285774e-14 349.99999999999994,1.0384014487751009e-13 350.00000000000017,-149.9999999999999" stroke="#f00" stroke-linecap="round" stroke-linejoin="round"/><polyline fill="none" points="349.99999999999994,1.0384014487751009e-13 364.99999999999994,1.2588378726216243e-13 365.00000000000017,-149.9999999999999" stroke="#f00" stroke-linecap="round" stroke-linejoin="round"/><polyline fill="none" points="364.99999999999994,1.2588378726216243e-13 379.99999999999994,1.4792742964681478e-13 380.00000000000017,-149.99999999999986" stroke="#f00" stroke-linecap="round" stroke-linejoin="round"/><polyline fill="none" points="379.99999999999994,1.4792742964681478e-13 394.99999999999994,1.6997107203146713e-13 395.00000000000017,-149.99999999999983" stroke="#f00" stroke-linecap="round" stroke-linejoin="round"/><polyline fill="none" points="260.0,0.0 260.0,-15.0 410.0,-14.99999999999978" stroke="#f00" stroke-linecap="round" stroke-linejoin="round"/><polyline fill="none" points="260.0,-15.0 260.0,-30.0 410.0,-29.99999999999978" stroke="#f00" stroke-linecap="round" stroke-linejoin="round"/><polyline fill="none" points="260.0,-30.0 260.0,-45.0 410.0,-44.99999999999978" stroke="#f00" stroke-linecap="round" stroke-linejoin="round"/><polyline fill="none" points="260.0,-45.0 260.0,-60.0 410.0,-59.99999999999978" stroke="#f00" stroke-linecap="round" stroke-linejoin="round"/><polyline fill="none" points="260.0,-60.0 260.0,-75.0 410.0,-74.99999999999977" stroke="#f00" stroke-linecap="round" stroke-linejoin="round"/><polyline fill="none" points="260.0,-75.0 260.0,-90.0 410.0,-89.99999999999977" stroke="#f00" stroke-linecap="round" stroke-linejoin="round"/><polyline fill="none" points="260.0,-90.0 260.0,-105.0 410.0,-104.99999999999977" stroke="#f00" stroke-linecap="round" stroke-linejoin="round"/><polyline fill="none" points="260.0,-105.0 260.0,-120.0 410.0,-119.99999999999977" stroke="#f00" stroke-linecap="round" stroke-linejoin="round"/><polyline fill="none" points="260.0,-120.0 260.0,-135.0 410.0,-134.99999999999977" stroke="#f00" stroke-linecap="round" stroke-linejoin="round"/><polygon fill="#ff9282" fill-rule="evenodd" points="440.0,0.0 590.0,2.2043642384652347e-13 590.0000000000002,-149.99999999999977 440.0000000000002,-150.0 440.0,-0.0" stroke-linejoin="round"/><polyline fill="none" points="440.0,0.0 590.0,2.2043642384652347e-13 590.0000000000002,-149.99999999999977 440.0000000000002,-150.0 440.0,-0.0 455.0,2.5717582782094403e-14 455.0000000000003,-149.99999999999997" stroke="#f00" stroke-linecap="round" stroke-linejoin="round"/><polyline fill="none" points="455.0,2.5717582782094403e-14 470.0,5.1435165564188806e-14 470.0000000000003,-149.99999999999994" stroke="#f00" stroke-linecap="round" stroke-linejoin="round"/><polyline fill="none" points="470.0,5.1435165564188806e-14 485.0,7.715274834628321e-14 485.0000000000003,-149.99999999999991" stroke="#f00" stroke-linecap="round" stroke-linejoin="round"/><polyline fill="none" points="485.0,7.715274834628321e-14 500.0,1.0287033112837761e-13 500.0000000000003,-149.9999999999999" stroke="#f00" stroke-linecap="round" stroke-linejoin="round"/><polyline fill="none" points="500.0,1.0287033112837761e-13 515.0,1.28587913910472e-13 515.0000000000002,-149.99999999999986" stroke="#f00" stroke-linecap="round" stroke-linejoin="round"/><polyline fill="none" points="515.0,1.28587913910472e-13 530.0,1.5430549669256641e-13 530.0000000000002,-149.99999999999986" stroke="#f00" stroke-linecap="round" stroke-linejoin="round"/><polyline fill="none" points="530.0,1.5430549669256641e-13 545.0,1.8002307947466082e-13 545.0000000000002,-149.99999999999983" stroke="#f00" stroke-linecap="round" stroke-linejoin="round"/><polyline fill="none" points="545.0,1.8002307947466082e-13 560.0,2.0574066225675523e-13 560.0000000000002,-149.9999999999998" stroke="#f00" stroke-linecap="round" stroke-linejoin="round"/><polyline fill="none" points="560.0,2.0574066225675523e-13 575.0,2.3145824503884963e-13 575.0000000000002,-149.99999999999977" stroke="#f00" stroke-linecap="round" stroke-linejoin="round"/><polyline fill="none" points="440.0,0.0 440.0,-15.0 590.0,-14.999999999999742" stroke="#f00" stroke-linecap="round" stroke-linejoin="round"/><polyline fill="none" points="440.0,-15.0 440.0,-30.0 590.0,-29.999999999999744" stroke="#f00" stroke-linecap="round" stroke-linejoin="round"/><polyline fill="none" points="440.0,-30.0 440.0,-45.0 590.0,-44.999999999999744" stroke="#f00" stroke-linecap="round" stroke-linejoin="round"/><polyline fill="none" points="440.0,-45.0 440.0,-60.0 590.0,-59.999999999999744" stroke="#f00" stroke-linecap="round" stroke-linejoin="round"/><polyline fill="none" points="440.0,-60.0 440.0,-75.0 590.0,-74.99999999999974" stroke="#f00" stroke-linecap="round" stroke-linejoin="round"/><polyline fill="none" points="440.0,-75.0 440.0,-90.0 590.0,-89.99999999999974" stroke="#f00" stroke-linecap="round" stroke-linejoin="round"/><polyline fill="none" points="440.0,-90.0 440.0,-105.0 590.0,-104.99999999999974" stroke="#f00" stroke-linecap="round" stroke-linejoin="round"/><polyline fill="none" points="440.0,-105.0 440.0,-120.0 590.0,-119.99999999999974" stroke="#f00" stroke-linecap="round" stroke-linejoin="round"/><polyline fill="none" points="440.0,-120.0 440.0,-135.0 590.0,-134.99999999999974" stroke="#f00" stroke-linecap="round" stroke-linejoin="round"/><polygon fill="#ff9282" fill-rule="evenodd" points="620.0,0.0 770.0,2.57175827820944e-13 770.0000000000002,-149.99999999999974 620.0000000000002,-150.00000000000003 619.9999999999999,-2.842170943040401e-14" stroke-linejoin="round"/><polyline fill="none" points="620.0,0.0 770.0,2.57175827820944e-13 770.0000000000002,-149.99999999999974 620.0000000000002,-150.00000000000003 619.9999999999999,-2.842170943040401e-14 634.9999999999999,9.698137491324534e-16 635.0000000000002,-150.0" stroke="#f00" stroke-linecap="round" stroke-linejoin="round"/><polyline fill="none" points="634.9999999999999,9.698137491324534e-16 649.9999999999999,3.0361336928668914e-14 650.0000000000002,-149.99999999999997" stroke="#f00" stroke-linecap="round" stroke-linejoin="round"/><polyline fill="none" points="649.9999999999999,3.0361336928668914e-14 664.9999999999999,5.975286010820537e-14 665.0000000000002,-149.99999999999994" stroke="#f00" stroke-linecap="round" stroke-linejoin="round"/><polyline fill="none" points="664.9999999999999,5.975286010820537e-14 679.9999999999999,8.914438328774184e-14 680.0000000000002,-149.99999999999991" stroke="#f00" stroke-linecap="round" stroke-linejoin="round"/><polyline fill="none" points="679.9999999999999,8.914438328774184e-14 694.9999999999999,1.185359064672783e-13 695.0000000000002,-149.9999999999999" stroke="#f00" stroke-linecap="round" stroke-linejoin="round"/><polyline fill="none" points="694.9999999999999,1.185359064672783e-13 709.9999999999999,1.4792742964681476e-13 710.0000000000002,-149.99999999999986" stroke="#f00" stroke-linecap="round" stroke-linejoin="round"/><polyline fill="none" points="709.9999999999999,1.4792742964681476e-13 724.9999999999999,1.7731895282635122e-13 725.0000000000002,-149.99999999999983" stroke="#f00" stroke-linecap="round" stroke-linejoin="round"/><polyline fill="none" points="724.9999999999999,1.7731895282635122e-13 739.9999999999999,2.0671047600588768e-13 740.0000000000002,-149.9999999999998" stroke="#f00" stroke-linecap="round" stroke-linejoin="round"/><polyline fill="none" points="739.9999999999999,2.0671047600588768e-13 754.9999999999999,2.361019991854241e-13 755.0000000000002,-149.99999999999977" stroke="#f00" stroke-linecap="round" stroke-linejoin="round"/><polyline fill="none" points="620.0,0.0 620.0,-15.0 770.0,-14.999999999999707" stroke="#f00" stroke-linecap="round" stroke-linejoin="round"/><polyline fill="none" points="620.0,-15.0 620.0,-30.0 770.0,-29.999999999999705" stroke="#f00" stroke-linecap="round" stroke-linejoin="round"/><polyline fill="none" points="620.0,-30.0 620.0,-45.0 770.0,-44.99999999999971" stroke="#f00" stroke-linecap="round" stroke-linejoin="round"/><polyline fill="none" points="620.0,-45.0 620.0,-60.0 770.0,-59.99999999999971" stroke="#f00" stroke-linecap="round" stroke-linejoin="round"/><polyline fill="none" points="620.0,-60.0 620.0,-75.0 770.0,-74.9999999999997" stroke="#f00" stroke-linecap="round" stroke-linejoin="round"/><polyline fill="none" points="620.0,-75.0 620.0,-90.0 770.0,-89.9999999999997" stroke="#f00" stroke-linecap="round" stroke-linejoin="round"/><polyline fill="none" points="620.0,-90.0 620.0,-105.0 770.0,-104.9999999999997" stroke="#f00" stroke-linecap="round" stroke-linejoin="round"/><polyline fill="none" points="620.0,-105.0 620.0,-120.0 770.0,-119.9999999999997" stroke="#f00" stroke-linecap="round" stroke-linejoin="round"/><polyline fill="none" points="620.0,-120.0 620.0,-135.0 770.0,-134.99999999999972" stroke="#f00" stroke-linecap="round" stroke-linejoin="round"/><polygon fill="#ff9282" fill-rule="evenodd" points="800.0,0.0 950.0,2.939152317953646e-13 950.0000000000003,-149.99999999999972 800.0000000000003,-150.00000000000003 800.0,-2.842170943040401e-14" stroke-linejoin="round"/><polyline fill="none" points="800.0,0.0 950.0,2.939152317953646e-13 950.0000000000003,-149.99999999999972 800.0000000000003,-150.00000000000003 800.0,-2.842170943040401e-14 815.0,4.643754146574508e-15 815.0000000000003,-150.0" stroke="#f00" stroke-linecap="round" stroke-linejoin="round"/><polyline fill="none" points="815.0,4.643754146574508e-15 830.0,3.770921772355302e-14 830.0000000000003,-149.99999999999997" stroke="#f00" stroke-linecap="round" stroke-linejoin="round"/><polyline fill="none" points="830.0,3.770921772355302e-14 845.0,7.077468130053154e-14 845.0000000000003,-149.99999999999994" stroke="#f00" stroke-linecap="round" stroke-linejoin="round"/><polyline fill="none" points="845.0,7.077468130053154e-14 860.0,1.0384014487751005e-13 860.0000000000003,-149.9999999999999" stroke="#f00" stroke-linecap="round" stroke-linejoin="round"/><polyline fill="none" points="860.0,1.0384014487751005e-13 875.0,1.3690560845448857e-13 875.0000000000003,-149.99999999999986" stroke="#f00" stroke-linecap="round" stroke-linejoin="round"/><polyline fill="none" points="875.0,1.3690560845448857e-13 890.0,1.6997107203146708e-13 890.0000000000003,-149.99999999999983" stroke="#f00" stroke-linecap="round" stroke-linejoin="round"/><polyline fill="none" points="890.0,1.6997107203146708e-13 905.0,2.030365356084456e-13 905.0000000000003,-149.9999999999998" stroke="#f00" stroke-linecap="round" stroke-linejoin="round"/><polyline fill="none" points="905.0,2.030365356084456e-13 920.0,2.361019991854241e-13 920.0000000000003,-149.99999999999977" stroke="#f00" stroke-linecap="round" stroke-linejoin="round"/><polyline fill="none" points="920.0,2.361019991854241e-13 935.0,2.6916746276240266e-13 935.0000000000003,-149.99999999999974" stroke="#f00" stroke-linecap="round" stroke-linejoin="round"/><polyline fill="none" points="800.0,0.0 800.0,-15.0 950.0,-14.99999999999967" stroke="#f00" stroke-linecap="round" stroke-linejoin="round"/><polyline fill="none" points="800.0,-15.0 800.0,-30.0 950.0,-29.99999999999967" stroke="#f00" stroke-linecap="round" stroke-linejoin="round"/><polyline fill="none" points="800.0,-30.0 800.0,-45.0 950.0,-44.999999999999666" stroke="#f00" stroke-linecap="round" stroke-linejoin="round"/><polyline fill="none" points="800.0,-45.0 800.0,-60.0 950.0,-59.999999999999666" stroke="#f00" stroke-linecap="round" stroke-linejoin="round"/><polyline fill="none" points="800.0,-60.0 800.0,-75.0 950.0,-74.99999999999967" stroke="#f00" stroke-linecap="round" stroke-linejoin="round"/><polyline fill="none" points="800.0,-75.0 800.0,-90.0 950.0,-89.99999999999967" stroke="#f00" stroke-linecap="round" stroke-linejoin="round"/><polyline fill="none" points="800.0,-90.0 800.0,-105.0 950.0,-104.99999999999967" stroke="#f00" stroke-linecap="round" stroke-linejoin="round"/><polyline fill="none" points="800.0,-105.0 800.0,-120.0 950.0,-119.99999999999967" stroke="#f00" stroke-linecap="round" stroke-linejoin="round"/><polyline fill="none" points="800.0,-120.0 800.0,-135.0 950.0,-134.99999999999966" stroke="#f00" stroke-linecap="round" stroke-linejoin="round"/><polygon fill="#789cdc" fill-rule="evenodd" points="980.0,0.0 995.0,3.3065463576978515e-14 995.0000000000003,-149.99999999999997 980.0000000000003,-150.0 980.0,-0.0" stroke-linejoin="round"/><polyline fill="none" points="980.0,0.0 995.0,3.3065463576978515e-14 995.0000000000003,-149.99999999999997 980.0000000000003,-150.0 980.0,-0.0" stroke="#00f" stroke-linecap="round" stroke-linejoin="round"/><polyline fill="none" points="980.0,0.0 980.0,-15.0 995.0,-14.999999999999966" stroke="#00f" stroke-linecap="round" stroke-linejoin="round"/><polyline fill="none" points="980.0,-15.0 980.0,-30.0 995.0,-29.999999999999968" stroke="#00f" stroke-linecap="round" stroke-linejoin="round"/><polyline fill="none" points="980.0,-30.0 980.0,-45.0 995.0,-44.999999999999964" stroke="#00f" stroke-linecap="round" stroke-linejoin="round"/><polyline fill="none" points="980.0,-45.0 980.0,-60.0 995.0,-59.999999999999964" stroke="#00f" stroke-linecap="round" stroke-linejoin="round"/><polyline fill="none" points="980.0,-60.0 980.0,-75.0 995.0,-74.99999999999997" stroke="#00f" stroke-linecap="round" stroke-linejoin="round"/><polyline fill="none" points="980.0,-75.0 980.0,-90.0 995.0,-89.99999999999997" stroke="#00f" stroke-linecap="round" stroke-linejoin="round"/><polyline fill="none" points="980.0,-90.0 980.0,-105.0 995.0,-104.99999999999997" stroke="#00f" stroke-linecap="round" stroke-linejoin="round"/><polyline fill="none" points="980.0,-105.0 980.0,-120.0 995.0,-119.99999999999997" stroke="#00f" stroke-linecap="round" stroke-linejoin="round"/><polyline fill="none" points="980.0,-120.0 980.0,-135.0 995.0,-134.99999999999997" stroke="#00f" stroke-linecap="round" stroke-linejoin="round"/><polygon fill="#789cdc" fill-rule="evenodd" points="1010.0,0.0 1025.0,3.3065463576978515e-14 1025.0000000000002,-149.99999999999997 1010.0000000000002,-150.0 1009.9999999999999,-0.0" stroke-linejoin="round"/><polyline fill="none" points="1010.0,0.0 1025.0,3.3065463576978515e-14 1025.0000000000002,-149.99999999999997 1010.0000000000002,-150.0 1009.9999999999999,-0.0" stroke="#00f" stroke-linecap="round" stroke-linejoin="round"/><polyline fill="none" points="1010.0,0.0 1010.0,-15.0 1025.0,-14.999999999999966" stroke="#00f" stroke-linecap="round" stroke-linejoin="round"/><polyline fill="none" points="1010.0,-15.0 1010.0,-30.0 1025.0,-29.999999999999968" stroke="#00f" stroke-linecap="round" stroke-linejoin="round"/><polyline fill="none" points="1010.0,-30.0 1010.0,-45.0 1025.0,-44.999999999999964" stroke="#00f" stroke-linecap="round" stroke-linejoin="round"/><polyline fill="none" points="1010.0,-45.0 1010.0,-60.0 1025.0,-59.999999999999964" stroke="#00f" stroke-linecap="round" stroke-linejoin="round"/><polyline fill="none" points="1010.0,-60.0 1010.0,-75.0 1025.0,-74.99999999999997" stroke="#00f" stroke-linecap="round" stroke-linejoin="round"/><polyline fill="none" points="1010.0,-75.0 1010.0,-90.0 1025.0,-89.99999999999997" stroke="#00f" stroke-linecap="round" stroke-linejoin="round"/><polyline fill="none" points="1010.0,-90.0 1010.0,-105.0 1025.0,-104.99999999999997" stroke="#00f" stroke-linecap="round" stroke-linejoin="round"/><polyline fill="none" points="1010.0,-105.0 1010.0,-120.0 1025.0,-119.99999999999997" stroke="#00f" stroke-linecap="round" stroke-linejoin="round"/><polyline fill="none" points="1010.0,-120.0 1010.0,-135.0 1025.0,-134.99999999999997" stroke="#00f" stroke-linecap="round" stroke-linejoin="round"/><polygon fill="#789cdc" fill-rule="evenodd" points="1040.0,0.0 1055.0,3.3065463576978515e-14 1055.0000000000002,-149.99999999999997 1040.0000000000002,-150.0 1039.9999999999998,-0.0" stroke-linejoin="round"/><polyline fill="none" points="1040.0,0.0 1055.0,3.3065463576978515e-14 1055.0000000000002,-149.99999999999997 1040.0000000000002,-150.0 1039.9999999999998,-0.0" stroke="#00f" stroke-linecap="round" stroke-linejoin="round"/><polyline fill="none" points="1040.0,0.0 1040.0,-15.0 1055.0,-14.999999999999966" stroke="#00f" stroke-linecap="round" stroke-linejoin="round"/><polyline fill="none" points="1040.0,-15.0 1040.0,-30.0 1055.0,-29.999999999999968" stroke="#00f" stroke-linecap="round" stroke-linejoin="round"/><polyline fill="none" points="1040.0,-30.0 1040.0,-45.0 1055.0,-44.999999999999964" stroke="#00f" stroke-linecap="round" stroke-linejoin="round"/><polyline fill="none" points="1040.0,-45.0 1040.0,-60.0 1055.0,-59.999999999999964" stroke="#00f" stroke-linecap="round" stroke-linejoin="round"/><polyline fill="none" points="1040.0,-60.0 1040.0,-75.0 1055.0,-74.99999999999997" stroke="#00f" stroke-linecap="round" stroke-linejoin="round"/><polyline fill="none" points="1040.0,-75.0 1040.0,-90.0 1055.0,-89.99999999999997" stroke="#00f" stroke-linecap="round" stroke-linejoin="round"/><polyline fill="none" points="1040.0,-90.0 1040.0,-105.0 1055.0,-104.99999999999997" stroke="#00f" stroke-linecap="round" stroke-linejoin="round"/><polyline fill="none" points="1040.0,-105.0 1040.0,-120.0 1055.0,-119.99999999999997" stroke="#00f" stroke-linecap="round" stroke-linejoin="round"/><polyline fill="none" points="1040.0,-120.0 1040.0,-135.0 1055.0,-134.99999999999997" stroke="#00f" stroke-linecap="round" stroke-linejoin="round"/><polygon fill="#789cdc" fill-rule="evenodd" points="1070.0,0.0 1085.0,3.3065463576978515e-14 1085.0000000000002,-149.99999999999997 1070.0000000000002,-150.0 1069.9999999999998,-0.0" stroke-linejoin="round"/><polyline fill="none" points="1070.0,0.0 1085.0,3.3065463576978515e-14 1085.0000000000002,-149.99999999999997 1070.0000000000002,-150.0 1069.9999999999998,-0.0" stroke="#00f" stroke-linecap="round" stroke-linejoin="round"/><polyline fill="none" points="1070.0,0.0 1070.0,-15.0 1085.0,-14.999999999999966" stroke="#00f" stroke-linecap="round" stroke-linejoin="round"/><polyline fill="none" points="1070.0,-15.0 1070.0,-30.0 1085.0,-29.999999999999968" stroke="#00f" stroke-linecap="round" stroke-linejoin="round"/><polyline fill="none" points="1070.0,-30.0 1070.0,-45.0 1085.0,-44.999999999999964" stroke="#00f" stroke-linecap="round" stroke-linejoin="round"/><polyline fill="none" points="1070.0,-45.0 1070.0,-60.0 1085.0,-59.999999999999964" stroke="#00f" stroke-linecap="round" stroke-linejoin="round"/><polyline fill="none" points="1070.0,-60.0 1070.0,-75.0 1085.0,-74.99999999999997" stroke="#00f" stroke-linecap="round" stroke-linejoin="round"/><polyline fill="none" points="1070.0,-75.0 1070.0,-90.0 1085.0,-89.99999999999997" stroke="#00f" stroke-linecap="round" stroke-linejoin="round"/><polyline fill="none" points="1070.0,-90.0 1070.0,-105.0 1085.0,-104.99999999999997" stroke="#00f" stroke-linecap="round" stroke-linejoin="round"/><polyline fill="none" points="1070.0,-105.0 1070.0,-120.0 1085.0,-119.99999999999997" stroke="#00f" stroke-linecap="round" stroke-linejoin="round"/><polyline fill="none" points="1070.0,-120.0 1070.0,-135.0 1085.0,-134.99999999999997" stroke="#00f" stroke-linecap="round" stroke-linejoin="round"/><polygon fill="#789cdc" fill-rule="evenodd" points="1100.0,0.0 1115.0,3.3065463576978515e-14 1115.0000000000002,-149.99999999999997 1100.0000000000002,-150.0 1099.9999999999998,-0.0" stroke-linejoin="round"/><polyline fill="none" points="1100.0,0.0 1115.0,3.3065463576978515e-14 1115.0000000000002,-149.99999999999997 1100.0000000000002,-150.0 1099.9999999999998,-0.0" stroke="#00f" stroke-linecap="round" stroke-linejoin="round"/><polyline fill="none" points="1100.0,0.0 1100.0,-15.0 1115.0,-14.999999999999966" stroke="#00f" stroke-linecap="round" stroke-linejoin="round"/><polyline fill="none" points="1100.0,-15.0 1100.0,-30.0 1115.0,-29.999999999999968" stroke="#00f" stroke-linecap="round" stroke-linejoin="round"/><polyline fill="none" points="1100.0,-30.0 1100.0,-45.0 1115.0,-44.999999999999964" stroke="#00f" stroke-linecap="round" stroke-linejoin="round"/><polyline fill="none" points="1100.0,-45.0 1100.0,-60.0 1115.0,-59.999999999999964" stroke="#00f" stroke-linecap="round" stroke-linejoin="round"/><polyline fill="none" points="1100.0,-60.0 1100.0,-75.0 1115.0,-74.99999999999997" stroke="#00f" stroke-linecap="round" stroke-linejoin="round"/><polyline fill="none" points="1100.0,-75.0 1100.0,-90.0 1115.0,-89.99999999999997" stroke="#00f" stroke-linecap="round" stroke-linejoin="round"/><polyline fill="none" points="1100.0,-90.0 1100.0,-105.0 1115.0,-104.99999999999997" stroke="#00f" stroke-linecap="round" stroke-linejoin="round"/><polyline fill="none" points="1100.0,-105.0 1100.0,-120.0 1115.0,-119.99999999999997" stroke="#00f" stroke-linecap="round" stroke-linejoin="round"/><polyline fill="none" points="1100.0,-120.0 1100.0,-135.0 1115.0,-134.99999999999997" stroke="#00f" stroke-linecap="round" stroke-linejoin="round"/><polygon fill="#789cdc" fill-rule="evenodd" points="1130.0,0.0 1145.0,3.3065463576978515e-14 1145.0000000000002,-149.99999999999997 1130.0000000000002,-150.0 1129.9999999999998,-0.0" stroke-linejoin="round"/><polyline fill="none" points="1130.0,0.0 1145.0,3.3065463576978515e-14 1145.0000000000002,-149.99999999999997 1130.0000000000002,-150.0 1129.9999999999998,-0.0" stroke="#00f" stroke-linecap="round" stroke-linejoin="round"/><polyline fill="none" points="1130.0,0.0 1130.0,-15.0 1145.0,-14.999999999999966" stroke="#00f" stroke-linecap="round" stroke-linejoin="round"/><polyline fill="none" points="1130.0,-15.0 1130.0,-30.0 1145.0,-29.999999999999968" stroke="#00f" stroke-linecap="round" stroke-linejoin="round"/><polyline fill="none" points="1130.0,-30.0 1130.0,-45.0 1145.0,-44.999999999999964" stroke="#00f" stroke-linecap="round" stroke-linejoin="round"/><polyline fill="none" points="1130.0,-45.0 1130.0,-60.0 1145.0,-59.999999999999964" stroke="#00f" stroke-linecap="round" stroke-linejoin="round"/><polyline fill="none" points="1130.0,-60.0 1130.0,-75.0 1145.0,-74.99999999999997" stroke="#00f" stroke-linecap="round" stroke-linejoin="round"/><polyline fill="none" points="1130.0,-75.0 1130.0,-90.0 1145.0,-89.99999999999997" stroke="#00f" stroke-linecap="round" stroke-linejoin="round"/><polyline fill="none" points="1130.0,-90.0 1130.0,-105.0 1145.0,-104.99999999999997" stroke="#00f" stroke-linecap="round" stroke-linejoin="round"/><polyline fill="none" points="1130.0,-105.0 1130.0,-120.0 1145.0,-119.99999999999997" stroke="#00f" stroke-linecap="round" stroke-linejoin="round"/><polyline fill="none" points="1130.0,-120.0 1130.0,-135.0 1145.0,-134.99999999999997" stroke="#00f" stroke-linecap="round" stroke-linejoin="round"/><polygon fill="#789cdc" fill-rule="evenodd" points="1160.0,0.0 1175.0,3.3065463576978515e-14 1175.0000000000002,-149.99999999999997 1160.0000000000002,-150.0 1159.9999999999998,-0.0" stroke-linejoin="round"/><polyline fill="none" points="1160.0,0.0 1175.0,3.3065463576978515e-14 1175.0000000000002,-149.99999999999997 1160.0000000000002,-150.0 1159.9999999999998,-0.0" stroke="#00f" stroke-linecap="round" stroke-linejoin="round"/><polyline fill="none" points="1160.0,0.0 1160.0,-15.0 1175.0,-14.999999999999966" stroke="#00f" stroke-linecap="round" stroke-linejoin="round"/><polyline fill="none" points="1160.0,-15.0 1160.0,-30.0 1175.0,-29.999999999999968" stroke="#00f" stroke-linecap="round" stroke-linejoin="round"/><polyline fill="none" points="1160.0,-30.0 1160.0,-45.0 1175.0,-44.999999999999964" stroke="#00f" stroke-linecap="round" stroke-linejoin="round"/><polyline fill="none" points="1160.0,-45.0 1160.0,-60.0 1175.0,-59.999999999999964" stroke="#00f" stroke-linecap="round" stroke-linejoin="round"/><polyline fill="none" points="1160.0,-60.0 1160.0,-75.0 1175.0,-74.99999999999997" stroke="#00f" stroke-linecap="round" stroke-linejoin="round"/><polyline fill="none" points="1160.0,-75.0 1160.0,-90.0 1175.0,-89.99999999999997" stroke="#00f" stroke-linecap="round" stroke-linejoin="round"/><polyline fill="none" points="1160.0,-90.0 1160.0,-105.0 1175.0,-104.99999999999997" stroke="#00f" stroke-linecap="round" stroke-linejoin="round"/><polyline fill="none" points="1160.0,-105.0 1160.0,-120.0 1175.0,-119.99999999999997" stroke="#00f" stroke-linecap="round" stroke-linejoin="round"/><polyline fill="none" points="1160.0,-120.0 1160.0,-135.0 1175.0,-134.99999999999997" stroke="#00f" stroke-linecap="round" stroke-linejoin="round"/><polygon fill="#789cdc" fill-rule="evenodd" points="1190.0,0.0 1205.0,3.3065463576978515e-14 1205.0000000000002,-149.99999999999997 1190.0000000000002,-150.0 1189.9999999999998,-0.0" stroke-linejoin="round"/><polyline fill="none" points="1190.0,0.0 1205.0,3.3065463576978515e-14 1205.0000000000002,-149.99999999999997 1190.0000000000002,-150.0 1189.9999999999998,-0.0" stroke="#00f" stroke-linecap="round" stroke-linejoin="round"/><polyline fill="none" points="1190.0,0.0 1190.0,-15.0 1205.0,-14.999999999999966" stroke="#00f" stroke-linecap="round" stroke-linejoin="round"/><polyline fill="none" points="1190.0,-15.0 1190.0,-30.0 1205.0,-29.999999999999968" stroke="#00f" stroke-linecap="round" stroke-linejoin="round"/><polyline fill="none" points="1190.0,-30.0 1190.0,-45.0 1205.0,-44.999999999999964" stroke="#00f" stroke-linecap="round" stroke-linejoin="round"/><polyline fill="none" points="1190.0,-45.0 1190.0,-60.0 1205.0,-59.999999999999964" stroke="#00f" stroke-linecap="round" stroke-linejoin="round"/><polyline fill="none" points="1190.0,-60.0 1190.0,-75.0 1205.0,-74.99999999999997" stroke="#00f" stroke-linecap="round" stroke-linejoin="round"/><polyline fill="none" points="1190.0,-75.0 1190.0,-90.0 1205.0,-89.99999999999997" stroke="#00f" stroke-linecap="round" stroke-linejoin="round"/><polyline fill="none" points="1190.0,-90.0 1190.0,-105.0 1205.0,-104.99999999999997" stroke="#00f" stroke-linecap="round" stroke-linejoin="round"/><polyline fill="none" points="1190.0,-105.0 1190.0,-120.0 1205.0,-119.99999999999997" stroke="#00f" stroke-linecap="round" stroke-linejoin="round"/><polyline fill="none" points="1190.0,-120.0 1190.0,-135.0 1205.0,-134.99999999999997" stroke="#00f" stroke-linecap="round" stroke-linejoin="round"/><polygon fill="#789cdc" fill-rule="evenodd" points="1220.0,0.0 1235.0,3.3065463576978515e-14 1235.0000000000002,-149.99999999999997 1220.0000000000002,-150.0 1219.9999999999998,-0.0" stroke-linejoin="round"/><polyline fill="none" points="1220.0,0.0 1235.0,3.3065463576978515e-14 1235.0000000000002,-149.99999999999997 1220.0000000000002,-150.0 1219.9999999999998,-0.0" stroke="#00f" stroke-linecap="round" stroke-linejoin="round"/><polyline fill="none" points="1220.0,0.0 1220.0,-15.0 1235.0,-14.999999999999966" stroke="#00f" stroke-linecap="round" stroke-linejoin="round"/><polyline fill="none" points="1220.0,-15.0 1220.0,-30.0 1235.0,-29.999999999999968" stroke="#00f" stroke-linecap="round" stroke-linejoin="round"/><polyline fill="none" points="1220.0,-30.0 1220.0,-45.0 1235.0,-44.999999999999964" stroke="#00f" stroke-linecap="round" stroke-linejoin="round"/><polyline fill="none" points="1220.0,-45.0 1220.0,-60.0 1235.0,-59.999999999999964" stroke="#00f" stroke-linecap="round" stroke-linejoin="round"/><polyline fill="none" points="1220.0,-60.0 1220.0,-75.0 1235.0,-74.99999999999997" stroke="#00f" stroke-linecap="round" stroke-linejoin="round"/><polyline fill="none" points="1220.0,-75.0 1220.0,-90.0 1235.0,-89.99999999999997" stroke="#00f" stroke-linecap="round" stroke-linejoin="round"/><polyline fill="none" points="1220.0,-90.0 1220.0,-105.0 1235.0,-104.99999999999997" stroke="#00f" stroke-linecap="round" stroke-linejoin="round"/><polyline fill="none" points="1220.0,-105.0 1220.0,-120.0 1235.0,-119.99999999999997" stroke="#00f" stroke-linecap="round" stroke-linejoin="round"/><polyline fill="none" points="1220.0,-120.0 1220.0,-135.0 1235.0,-134.99999999999997" stroke="#00f" stroke-linecap="round" stroke-linejoin="round"/><polyline fill="none" points="-648.0,5.0 1242.0,5.0000000000041664 1242.0000000000005,-159.99999999999582 -647.9999999999995,-160.00000000000023 -647.9999999999999,4.999999999999773" stroke="#000" stroke-linecap="round" stroke-linejoin="round"/><text fill="#000" font-family="Arial" font-size="20.0pt" stroke-width="0.0" x="289.0" y="44">990</text><text fill="#000" font-family="Arial" font-size="16.0pt" stroke-width="0.0" x="1264.0" y="-55">+</text><polygon fill="#789cdc" fill-rule="evenodd" points="1310.0,0.0 1325.0,3.673940397442057e-14 1325.0000000000005,-149.99999999999997 1310.0000000000005,-150.0 1310.0,-0.0" stroke-linejoin="round"/><polyline fill="none" points="1310.0,0.0 1325.0,3.673940397442057e-14 1325.0000000000005,-149.99999999999997 1310.0000000000005,-150.0 1310.0,-0.0" stroke="#00f" stroke-linecap="round" stroke-linejoin="round"/><polyline fill="none" points="1310.0,0.0 1310.0,-15.0 1325.0,-14.999999999999963" stroke="#00f" stroke-linecap="round" stroke-linejoin="round"/><polyline fill="none" points="1310.0,-15.0 1310.0,-30.0 1325.0,-29.999999999999964" stroke="#00f" stroke-linecap="round" stroke-linejoin="round"/><polyline fill="none" points="1310.0,-30.0 1310.0,-45.0 1325.0,-44.999999999999964" stroke="#00f" stroke-linecap="round" stroke-linejoin="round"/><polyline fill="none" points="1310.0,-45.0 1310.0,-60.0 1325.0,-59.999999999999964" stroke="#00f" stroke-linecap="round" stroke-linejoin="round"/><polyline fill="none" points="1310.0,-60.0 1310.0,-75.0 1325.0,-74.99999999999996" stroke="#00f" stroke-linecap="round" stroke-linejoin="round"/><polyline fill="none" points="1310.0,-75.0 1310.0,-90.0 1325.0,-89.99999999999996" stroke="#00f" stroke-linecap="round" stroke-linejoin="round"/><polyline fill="none" points="1310.0,-90.0 1310.0,-105.0 1325.0,-104.99999999999996" stroke="#00f" stroke-linecap="round" stroke-linejoin="round"/><polyline fill="none" points="1310.0,-105.0 1310.0,-120.0 1325.0,-119.99999999999996" stroke="#00f" stroke-linecap="round" stroke-linejoin="round"/><polyline fill="none" points="1310.0,-120.0 1310.0,-135.0 1325.0,-134.99999999999997" stroke="#00f" stroke-linecap="round" stroke-linejoin="round"/><polyline fill="none" points="1302.0,5.0 1332.0,5.000000000000074 1332.0000000000005,-159.99999999999991 1302.0000000000005,-160.0 1302.0,5.0" stroke="#000" stroke-linecap="round" stroke-linejoin="round"/><text fill="#000" font-family="Arial" font-size="20.0pt" stroke-width="0.0" x="1309.0" y="44">10</text><text fill="#000" font-family="Arial" font-size="16.0pt" stroke-width="0.0" x="1354.0" y="-55">=</text><polygon fill="#b6feb1" fill-rule="evenodd" points="1400.0,0.0 1550.0,4.0413344371862624e-13 1550.0000000000005,-149.9999999999996 1400.0000000000005,-150.00000000000003 1400.0,-2.842170943040401e-14" stroke-linejoin="round"/><polyline fill="none" points="1400.0,0.0 1550.0,4.0413344371862624e-13 1550.0000000000005,-149.9999999999996 1400.0000000000005,-150.00000000000003 1400.0,-2.842170943040401e-14 1415.0,1.566557533890067e-14 1415.0000000000005,-149.99999999999997" stroke="#0f0" stroke-linecap="round" stroke-linejoin="round"/><polyline fill="none" points="1415.0,1.566557533890067e-14 1430.0,5.975286010820535e-14 1430.0000000000005,-149.99999999999994" stroke="#0f0" stroke-linecap="round" stroke-linejoin="round"/><polyline fill="none" points="1430.0,5.975286010820535e-14 1445.0,1.0384014487751003e-13 1445.0000000000005,-149.9999999999999" stroke="#0f0" stroke-linecap="round" stroke-linejoin="round"/><polyline fill="none" points="1445.0,1.0384014487751003e-13 1460.0,1.479274296468147e-13 1460.0000000000005,-149.99999999999986" stroke="#0f0" stroke-linecap="round" stroke-linejoin="round"/><polyline fill="none" points="1460.0,1.479274296468147e-13 1475.0,1.9201471441611939e-13 1475.0000000000005,-149.9999999999998" stroke="#0f0" stroke-linecap="round" stroke-linejoin="round"/><polyline fill="none" points="1475.0,1.9201471441611939e-13 1490.0,2.3610199918542406e-13 1490.0000000000005,-149.99999999999977" stroke="#0f0" stroke-linecap="round" stroke-linejoin="round"/><polyline fill="none" points="1490.0,2.3610199918542406e-13 1505.0,2.8018928395472877e-13 1505.0000000000005,-149.99999999999972" stroke="#0f0" stroke-linecap="round" stroke-linejoin="round"/><polyline fill="none" points="1505.0,2.8018928395472877e-13 1520.0,3.242765687240334e-13 1520.0000000000005,-149.9999999999997" stroke="#0f0" stroke-linecap="round" stroke-linejoin="round"/><polyline fill="none" points="1520.0,3.242765687240334e-13 1535.0,3.6836385349333807e-13 1535.0000000000005,-149.99999999999963" stroke="#0f0" stroke-linecap="round" stroke-linejoin="round"/><polyline fill="none" points="1400.0,0.0 1400.0,-15.0 1550.0,-14.99999999999956" stroke="#0f0" stroke-linecap="round" stroke-linejoin="round"/><polyline fill="none" points="1400.0,-15.0 1400.0,-30.0 1550.0,-29.99999999999956" stroke="#0f0" stroke-linecap="round" stroke-linejoin="round"/><polyline fill="none" points="1400.0,-30.0 1400.0,-45.0 1550.0,-44.99999999999956" stroke="#0f0" stroke-linecap="round" stroke-linejoin="round"/><polyline fill="none" points="1400.0,-45.0 1400.0,-60.0 1550.0,-59.99999999999956" stroke="#0f0" stroke-linecap="round" stroke-linejoin="round"/><polyline fill="none" points="1400.0,-60.0 1400.0,-75.0 1550.0,-74.99999999999956" stroke="#0f0" stroke-linecap="round" stroke-linejoin="round"/><polyline fill="none" points="1400.0,-75.0 1400.0,-90.0 1550.0,-89.99999999999956" stroke="#0f0" stroke-linecap="round" stroke-linejoin="round"/><polyline fill="none" points="1400.0,-90.0 1400.0,-105.0 1550.0,-104.99999999999956" stroke="#0f0" stroke-linecap="round" stroke-linejoin="round"/><polyline fill="none" points="1400.0,-105.0 1400.0,-120.0 1550.0,-119.99999999999956" stroke="#0f0" stroke-linecap="round" stroke-linejoin="round"/><polyline fill="none" points="1400.0,-120.0 1400.0,-135.0 1550.0,-134.99999999999955" stroke="#0f0" stroke-linecap="round" stroke-linejoin="round"/><polygon fill="#b6feb1" fill-rule="evenodd" points="1400.0,-150.0 1550.0,-149.99999999999955 1636.602540378444,-199.9999999999993 1486.602540378444,-199.99999999999974 1400.0,-150.0" stroke-linejoin="round"/><polyline fill="none" points="1400.0,-150.0 1550.0,-149.99999999999955 1636.602540378444,-199.9999999999993 1486.602540378444,-199.99999999999974 1400.0,-150.0 1415.0,-149.99999999999994 1501.602540378444,-199.9999999999997" stroke="#0f0" stroke-linecap="round" stroke-linejoin="round"/><polyline fill="none" points="1415.0,-149.99999999999994 1430.0,-149.9999999999999 1516.602540378444,-199.99999999999963" stroke="#0f0" stroke-linecap="round" stroke-linejoin="round"/><polyline fill="none" points="1430.0,-149.9999999999999 1445.0,-149.99999999999983 1531.602540378444,-199.99999999999957" stroke="#0f0" stroke-linecap="round" stroke-linejoin="round"/><polyline fill="none" points="1445.0,-149.99999999999983 1460.0,-149.99999999999977 1546.602540378444,-199.99999999999952" stroke="#0f0" stroke-linecap="round" stroke-linejoin="round"/><polyline fill="none" points="1460.0,-149.99999999999977 1475.0,-149.99999999999972 1561.602540378444,-199.99999999999946" stroke="#0f0" stroke-linecap="round" stroke-linejoin="round"/><polyline fill="none" points="1475.0,-149.99999999999972 1490.0,-149.99999999999966 1576.602540378444,-199.9999999999994" stroke="#0f0" stroke-linecap="round" stroke-linejoin="round"/><polyline fill="none" points="1490.0,-149.99999999999966 1505.0,-149.9999999999996 1591.602540378444,-199.99999999999935" stroke="#0f0" stroke-linecap="round" stroke-linejoin="round"/><polyline fill="none" points="1505.0,-149.9999999999996 1520.0,-149.99999999999955 1606.602540378444,-199.9999999999993" stroke="#0f0" stroke-linecap="round" stroke-linejoin="round"/><polyline fill="none" points="1520.0,-149.99999999999955 1535.0,-149.9999999999995 1621.602540378444,-199.99999999999923" stroke="#0f0" stroke-linecap="round" stroke-linejoin="round"/><polyline fill="none" points="1400.0,-150.0 1408.6602540378444,-154.99999999999997 1558.6602540378444,-154.99999999999952" stroke="#0f0" stroke-linecap="round" stroke-linejoin="round"/><polyline fill="none" points="1408.6602540378444,-154.99999999999997 1417.3205080756888,-159.99999999999994 1567.3205080756888,-159.9999999999995" stroke="#0f0" stroke-linecap="round" stroke-linejoin="round"/><polyline fill="none" points="1417.3205080756888,-159.99999999999994 1425.9807621135333,-164.99999999999991 1575.9807621135333,-164.99999999999946" stroke="#0f0" stroke-linecap="round" stroke-linejoin="round"/><polyline fill="none" points="1425.9807621135333,-164.99999999999991 1434.6410161513777,-169.9999999999999 1584.6410161513777,-169.99999999999943" stroke="#0f0" stroke-linecap="round" stroke-linejoin="round"/><polyline fill="none" points="1434.6410161513777,-169.9999999999999 1443.3012701892221,-174.99999999999986 1593.3012701892221,-174.9999999999994" stroke="#0f0" stroke-linecap="round" stroke-linejoin="round"/><polyline fill="none" points="1443.3012701892221,-174.99999999999986 1451.9615242270665,-179.99999999999983 1601.9615242270665,-179.99999999999937" stroke="#0f0" stroke-linecap="round" stroke-linejoin="round"/><polyline fill="none" points="1451.9615242270665,-179.99999999999983 1460.621778264911,-184.9999999999998 1610.621778264911,-184.99999999999935" stroke="#0f0" stroke-linecap="round" stroke-linejoin="round"/><polyline fill="none" points="1460.621778264911,-184.9999999999998 1469.2820323027554,-189.99999999999977 1619.2820323027554,-189.99999999999932" stroke="#0f0" stroke-linecap="round" stroke-linejoin="round"/><polyline fill="none" points="1469.2820323027554,-189.99999999999977 1477.9422863405998,-194.99999999999974 1627.9422863405998,-194.9999999999993" stroke="#0f0" stroke-linecap="round" stroke-linejoin="round"/><polygon fill="#b6feb1" fill-rule="evenodd" points="1550.0,0.0 1636.602540378444,-49.99999999999974 1636.6025403784445,-199.99999999999974 1550.0000000000005,-150.00000000000003 1550.0,-5.684341886080802e-14" stroke-linejoin="round"/><polyline fill="none" points="1550.0,0.0 1636.602540378444,-49.99999999999974 1636.6025403784445,-199.99999999999974 1550.0000000000005,-150.00000000000003 1550.0,-5.684341886080802e-14 1558.6602540378444,-5.000000000000023 1558.660254037845,-155.0" stroke="#0f0" stroke-linecap="round" stroke-linejoin="round"/><polyline fill="none" points="1558.6602540378444,-5.000000000000023 1567.3205080756888,-9.99999999999999 1567.3205080756895,-159.99999999999997" stroke="#0f0" stroke-linecap="round" stroke-linejoin="round"/><polyline fill="none" points="1567.3205080756888,-9.99999999999999 1575.9807621135333,-14.999999999999956 1575.980762113534,-164.99999999999991" stroke="#0f0" stroke-linecap="round" stroke-linejoin="round"/><polyline fill="none" points="1575.9807621135333,-14.999999999999956 1584.6410161513777,-19.999999999999922 1584.6410161513784,-169.9999999999999" stroke="#0f0" stroke-linecap="round" stroke-linejoin="round"/><polyline fill="none" points="1584.6410161513777,-19.999999999999922 1593.3012701892221,-24.999999999999886 1593.3012701892228,-174.99999999999986" stroke="#0f0" stroke-linecap="round" stroke-linejoin="round"/><polyline fill="none" points="1593.3012701892221,-24.999999999999886 1601.9615242270665,-29.99999999999985 1601.9615242270672,-179.99999999999983" stroke="#0f0" stroke-linecap="round" stroke-linejoin="round"/><polyline fill="none" points="1601.9615242270665,-29.99999999999985 1610.621778264911,-34.999999999999815 1610.6217782649117,-184.99999999999977" stroke="#0f0" stroke-linecap="round" stroke-linejoin="round"/><polyline fill="none" points="1610.621778264911,-34.999999999999815 1619.2820323027554,-39.99999999999978 1619.282032302756,-189.99999999999974" stroke="#0f0" stroke-linecap="round" stroke-linejoin="round"/><polyline fill="none" points="1619.2820323027554,-39.99999999999978 1627.9422863405998,-44.999999999999744 1627.9422863406005,-194.99999999999972" stroke="#0f0" stroke-linecap="round" stroke-linejoin="round"/><polyline fill="none" points="1550.0,0.0 1550.0,-14.999999999999996 1636.602540378444,-64.99999999999966" stroke="#0f0" stroke-linecap="round" stroke-linejoin="round"/><polyline fill="none" points="1550.0,-14.999999999999996 1550.0,-29.999999999999993 1636.602540378444,-79.99999999999966" stroke="#0f0" stroke-linecap="round" stroke-linejoin="round"/><polyline fill="none" points="1550.0,-29.999999999999993 1550.0,-44.999999999999986 1636.602540378444,-94.99999999999964" stroke="#0f0" stroke-linecap="round" stroke-linejoin="round"/><polyline fill="none" points="1550.0,-44.999999999999986 1550.0,-59.999999999999986 1636.602540378444,-109.99999999999964" stroke="#0f0" stroke-linecap="round" stroke-linejoin="round"/><polyline fill="none" points="1550.0,-59.999999999999986 1550.0,-74.99999999999999 1636.602540378444,-124.99999999999964" stroke="#0f0" stroke-linecap="round" stroke-linejoin="round"/><polyline fill="none" points="1550.0,-74.99999999999999 1550.0,-89.99999999999999 1636.602540378444,-139.99999999999966" stroke="#0f0" stroke-linecap="round" stroke-linejoin="round"/><polyline fill="none" points="1550.0,-89.99999999999999 1550.0,-104.99999999999999 1636.602540378444,-154.99999999999966" stroke="#0f0" stroke-linecap="round" stroke-linejoin="round"/><polyline fill="none" points="1550.0,-104.99999999999999 1550.0,-119.99999999999999 1636.602540378444,-169.99999999999966" stroke="#0f0" stroke-linecap="round" stroke-linejoin="round"/><polyline fill="none" points="1550.0,-119.99999999999999 1550.0,-134.99999999999997 1636.602540378444,-184.99999999999963" stroke="#0f0" stroke-linecap="round" stroke-linejoin="round"/><polyline fill="none" points="1392.0,5.0 1647.0,5.000000000000949 1647.000000000001,-224.999999999999 1392.000000000001,-224.99999999999997 1392.0,4.999999999999972" stroke="#000" stroke-linecap="round" stroke-linejoin="round"/><text fill="#000" font-family="Arial" font-size="20.0pt" stroke-width="0.0" x="1511.0" y="44">1000</text><line fill="none" stroke="none" stroke-linecap="round" stroke-width="2.0" x1="0.0" x2="0.0" y1="0.0" y2="0.0"/><polygon fill="none" fill-rule="evenodd" points="0.0,0.0 0.0,0.0 0.0,0.0" stroke-linejoin="round"/></svg>